<svg xmlns="http://www.w3.org/2000/svg" width="1600" height="900" viewBox="0 0 1600 900">
  <defs>
    <style>
      .bg{fill:#07100f}.grid{stroke:rgba(118,214,216,.13);stroke-width:1}.panel{fill:rgba(10,24,23,.92);stroke:#76d6d8;stroke-width:2;rx:18}.start{fill:rgba(12,42,42,.96);stroke:#76d6d8;stroke-width:3;rx:18}.betray{fill:rgba(55,18,17,.96);stroke:#d85f52;stroke-width:3;rx:16}.decision{fill:rgba(39,33,9,.95);stroke:#d7a35d;stroke-width:3}.safe{fill:rgba(18,45,27,.96);stroke:#93d8a3;stroke-width:3;rx:16}.danger{fill:rgba(55,18,17,.96);stroke:#d85f52;stroke-width:3;rx:16}.ending-blue{fill:rgba(12,32,48,.98);stroke:#70b7ff;stroke-width:3;rx:16}.ending-green{fill:rgba(14,45,28,.98);stroke:#93d8a3;stroke-width:3;rx:16}.title{fill:#f2fbf8;font:700 54px "PingFang SC","Noto Sans CJK SC",sans-serif}.subtitle{fill:#d85f52;font:600 26px "PingFang SC","Noto Sans CJK SC",sans-serif}.label{fill:#e7f2ec;font:600 25px "PingFang SC","Noto Sans CJK SC",sans-serif}.small{fill:#b9cbc5;font:500 19px "PingFang SC","Noto Sans CJK SC",sans-serif}.tiny{fill:#93a8a2;font:500 16px "PingFang SC","Noto Sans CJK SC",sans-serif}.edge{stroke:#93d8a3;stroke-width:4;fill:none;marker-end:url(#arrow)}.edge2{stroke:#d7a35d;stroke-width:4;fill:none;marker-end:url(#arrow2)}.edge3{stroke:#d85f52;stroke-width:4;fill:none;marker-end:url(#arrow3)}
    </style>
    <marker id="arrow" markerWidth="10" markerHeight="10" refX="8" refY="3" orient="auto"><path d="M0,0 L0,6 L8,3 z" fill="#93d8a3"/></marker>
    <marker id="arrow2" markerWidth="10" markerHeight="10" refX="8" refY="3" orient="auto"><path d="M0,0 L0,6 L8,3 z" fill="#d7a35d"/></marker>
    <marker id="arrow3" markerWidth="10" markerHeight="10" refX="8" refY="3" orient="auto"><path d="M0,0 L0,6 L8,3 z" fill="#d85f52"/></marker>
  </defs>
  <rect class="bg" width="1600" height="900"/>
  <g opacity=".75"><path class="grid" d="M0 80H1600M0 160H1600M0 240H1600M0 320H1600M0 400H1600M0 480H1600M0 560H1600M0 640H1600M0 720H1600M0 800H1600"/><path class="grid" d="M80 0V900M160 0V900M240 0V900M320 0V900M400 0V900M480 0V900M560 0V900M640 0V900M720 0V900M800 0V900M880 0V900M960 0V900M1040 0V900M1120 0V900M1200 0V900M1280 0V900M1360 0V900M1440 0V900M1520 0V900"/></g>
  <text x="70" y="86" class="title">分歧3：疫苗给许燃</text>
  <text x="72" y="126" class="subtitle">最危险的交接选择：疫苗直接落入白鸮与对抗局手中</text>
  <rect x="1120" y="54" width="405" height="150" class="panel"/>
  <text x="1150" y="95" class="label">关键变量</text>
  <text x="1150" y="128" class="small">has_sonic_bomb｜音爆弹方向</text>
  <text x="1150" y="158" class="small">沈砚状态｜疫苗被对抗局带走</text>
  <rect x="95" y="218" width="390" height="86" class="start"/>
  <text x="190" y="252" class="label">P14_3 白鸮暴露</text>
  <text x="194" y="282" class="small">许燃持有疫苗</text>
  <path class="edge3" d="M485 261H605"/>
  <rect x="605" y="215" width="425" height="92" class="betray"/>
  <text x="665" y="252" class="label">许燃带着疫苗退回邵戟身边</text>
  <text x="735" y="282" class="small">对抗局撤退</text>
  <path class="edge2" d="M817 307V365"/>
  <polygon points="817,365 967,430 817,495 667,430" class="decision"/>
  <text x="742" y="424" class="label">是否有音爆弹</text>
  <path class="edge" d="M735 478H385V570"/>
  <path class="edge3" d="M900 478H1200V570"/>
  <polygon points="385,570 545,640 385,710 225,640" class="decision"/>
  <text x="295" y="634" class="label">音爆弹投掷方向</text>
  <rect x="1050" y="570" width="300" height="90" class="danger"/>
  <text x="1100" y="606" class="label">无音爆弹</text>
  <text x="1082" y="636" class="small">沈砚殿后被抓伤，进入冷舱</text>
  <path class="edge3" d="M1200 660V790"/>
  <path class="edge" d="M310 692V790"/>
  <path class="edge" d="M460 692V790"/>
  <rect x="170" y="790" width="230" height="72" class="ending-blue"/>
  <text x="250" y="820" class="label">E07</text><text x="206" y="850" class="small">失去疫苗，留下沈砚</text>
  <rect x="435" y="790" width="230" height="72" class="ending-green"/>
  <text x="515" y="820" class="label">E08</text><text x="487" y="850" class="small">活着的失败者</text>
  <rect x="1085" y="790" width="230" height="72" class="ending-blue"/>
  <text x="1165" y="820" class="label">E07</text><text x="1121" y="850" class="small">失去疫苗，留下沈砚</text>
  <text x="225" y="754" class="small">扔向西南方</text>
  <text x="430" y="754" class="small">扔向东北方向</text>
</svg>
